# xmcd
#
# Track frame offsets: 
#        150
#        18225
#        35035
#        54265
#        72150
#        86665
#        102562
#        120297
#        140697
#        161695
#        174372
#        191367
#        206085
#        219492
#        235207
#        248390
#        263210
#        277417
#        296980
#        310885
#
# Disc length: 4402 seconds
#
# Revision: 0
# Processed by: cddbd v1.5.2PL0 Copyright (c) Steve Scherf et al.
# Submitted via: ExactAudioCopy v1.0b1
#
DISCID=2a113014
DTITLE=Various Artist - Cinta 101, Disc 1
DYEAR=2009
DGENRE=Melayu
TTITLE0=Hujan (Sudirman)
TTITLE1=Perpisahan Terasing (KRU)
TTITLE2=Kau Merubah Segalanya (Fauziah Latiff)
TTITLE3=Dua Insan Bercinta (Ella)
TTITLE4=Bukan Kerana Dendam (Gingerbread)
TTITLE5=Bicara Tentang Cinta (Dato' Shake)
TTITLE6=Gerimis Semalam (Sheila Majid)
TTITLE7=Mulanya Di Sini (Freedom)
TTITLE8=Misteri Cinta (Sohaimi Mior Hassan)
TTITLE9=Kau Milik Hati Ku (Uji Rashid)
TTITLE10=Wajah Mu Di Mana-Mana (Azlina Aziz)
TTITLE11=Kiranya Kau Mendengar Ketika Ini (Jay Jay)
TTITLE12=Penawar Rindu (Razis Ismail)
TTITLE13=Tiada Cinta Lagi (Alice Sound)
TTITLE14=Tak Kenal Maka Tak Cinta (Roy and Fran)
TTITLE15=Kau Yang Ku Nanti (Yusni Hamid)
TTITLE16=Tangisan Semalam (Uji Rashid)
TTITLE17=Tiada Maaf Bagi Mu (Sharifah Aini)
TTITLE18=Hati Ku Luka Kembali (Jamal Abdillah)
TTITLE19=Milik Siapakah Gadis Ini (Sudirman)
EXTD=
EXTT0=
EXTT1=
EXTT2=
EXTT3=
EXTT4=
EXTT5=
EXTT6=
EXTT7=
EXTT8=
EXTT9=
EXTT10=
EXTT11=
EXTT12=
EXTT13=
EXTT14=
EXTT15=
EXTT16=
EXTT17=
EXTT18=
EXTT19=
PLAYORDER=
